<?xml version="1.0" encoding="utf-8"?>
<!-- Generator: Adobe Illustrator 27.6.1, SVG Export Plug-In . SVG Version: 6.00 Build 0)  -->
<svg version="1.1" id="Livello_1" xmlns="http://www.w3.org/2000/svg" xmlns:xlink="http://www.w3.org/1999/xlink" x="0px" y="0px"
	 viewBox="0 0 558 340" style="enable-background:new 0 0 558 340;" xml:space="preserve">
<style type="text/css">
	.st0{clip-path:url(#SVGID_00000144314487517181005790000004819519199222990772_);}
	.st1{fill:#00142B;}
	.st2{fill:#ABB1B9;}
	.st3{fill:#78828F;}
	.st4{fill:#FFFFFF;}
	.st5{fill:#1F3044;}
	.st6{fill:#2B3C4F;}
	.st7{fill:#475666;}
	.st8{fill:#17293E;}
	.st9{fill:#38485A;}
	.st10{fill:#1A2B40;}
</style>
<g id="Layer_2">
	<g>
		<g>
			<g>
				<defs>
					<path id="SVGID_1_" d="M258.1,274.9c-20.9-29.2-30.6-67.5-24.5-109.3c4.2-28.8,15.4-55.8,31.5-79.4c0,0-34.1-48.1-122.1-30.8
						S-6.3,174.8,31,256.1C66.7,334,174.6,333.1,258.1,274.9z"/>
				</defs>
				<clipPath id="SVGID_00000020398167173255927540000001048726826013513146_">
					<use xlink:href="#SVGID_1_"  style="overflow:visible;"/>
				</clipPath>
				<g style="clip-path:url(#SVGID_00000020398167173255927540000001048726826013513146_);">
					<g>
						<path class="st1" d="M54.6,281.1c-19.2-19.2-30.5-46-30.5-76.2l0,0c0-6.1,0.5-12.3,1.4-18.6l0,0
							C35.8,117.2,99.8,61.5,169,61.4l0,0c31.4,0,58.5,11.6,77.8,30.8l0,0c19.2,19.2,30.5,46,30.5,76.2l0,0c0,6.1-0.5,12.3-1.4,18.6
							l0,0c-10.4,69.1-74.4,124.8-143.5,124.9l0,0C100.9,311.9,73.8,300.3,54.6,281.1L54.6,281.1z M28.7,204.9
							c0.1,58,43.1,102.2,103.6,102.3l0,0c66.6,0.1,129-54.2,138.9-120.9l0,0c0.9-6.1,1.3-12.1,1.3-17.9l0,0
							c-0.1-58-43.2-104.7-103.6-104.8l0,0c-66.6-0.1-129,56.8-138.9,123.4l0,0C29.2,193.1,28.7,199.1,28.7,204.9L28.7,204.9z"/>
					</g>
					<path class="st2" d="M37.6,184.5c-9.3,62.6,33.8,113.3,96.4,113.3c62.6,0,120.9-50.7,130.2-113.3
						c9.3-62.6-33.8-113.3-96.4-113.3C105.2,71.2,47,121.9,37.6,184.5z"/>
					<path class="st3" d="M149.5,194c40.5,0,75.5,13.7,101.2,31c-22.7,42.5-68.4,72.7-116.6,72.7c-48.3,0-85-30.2-95-72.7
						C70,207.7,109,194,149.5,194z"/>
					<path class="st1" d="M127.7,186.2c-1.9,12.7,6.9,22.9,19.5,22.9c12.7,0,24.5-10.3,26.4-22.9c1.9-12.7-6.9-22.9-19.5-22.9
						C141.4,163.2,129.6,173.5,127.7,186.2z"/>
					<path class="st4" d="M168.4,189.3c1.6-10.5-5.3-18.9-15.3-18.9c-10,0-19.4,8.5-21,18.9c-0.2,1-0.2,2-0.2,3
						c-0.4-1.9-0.4-4-0.1-6.1c1.6-10.5,11.3-18.9,21.8-18.9c10.5,0,17.7,8.5,16.1,18.9c-0.3,2.1-1,4.2-1.9,6.1
						C168,191.3,168.2,190.3,168.4,189.3z"/>
					<path class="st4" d="M161.4,188.8c1-6.5-3.2-11.9-9.3-11.9s-11.9,5.3-12.9,11.9c-0.1,0.6-0.1,1.2-0.1,1.8
						c-0.4-1.4-0.5-2.9-0.2-4.5c1-6.5,7.1-11.9,13.6-11.9c6.5,0,11.1,5.3,10.1,11.9c-0.2,1.6-0.8,3.1-1.6,4.5
						C161.1,190.1,161.3,189.5,161.4,188.8z"/>
					<path class="st4" d="M129.8,91.3c-8.1,12.8,5.1,68.3,24.6,68.3c19.5,0,50.8-55.8,44.9-68.3C193.4,78.8,138,78.5,129.8,91.3z"/>
					<path class="st4" d="M49.3,191.7c8.1,9.9,66,5.8,75.1-13.1c9.1-18.9-29.3-57-43.7-53.2C66.3,129.1,41.1,181.7,49.3,191.7z"/>
					<path class="st4" d="M107.2,285.2c13.6-6.4,37.7-63.4,23.7-75.2c-14-11.8-70.3,18.5-73.6,33.1
						C53.9,257.7,93.6,291.6,107.2,285.2z"/>
					<path class="st4" d="M227.2,244c0.2-14.1-48.1-43.1-63.2-34.8c-19.1,10.4-15.7,70.7-2.9,76.2C174,291,227,258.2,227.2,244z"/>
					<path class="st4" d="M239.8,127.8c-13.4-2.6-63.3,32.7-60.5,51.7c2.7,19,60.3,26.4,71.4,15.4
						C261.7,183.9,253.2,130.4,239.8,127.8z"/>
					<path class="st5" d="M155.2,154.6c18.2,0,47.6-52.3,42.1-64.1c-5.5-11.7-57.4-12-65.1,0C124.6,102.5,137,154.6,155.2,154.6z
						 M51.2,185.8c8.2,9.3,64.3,6.7,72.6-10.6c8.3-17.3-29-54.3-42.9-51.1C67.1,127.3,43,176.5,51.2,185.8z M60.4,240.3
						c-3.3,13.7,33.4,45.2,46.2,39c12.8-6.1,35.9-59.8,22.9-70.8C116.6,197.6,63.6,226.6,60.4,240.3z M163.6,280.2
						c11.8,5.5,59.1-23.8,59-37c-0.1-13.2-41.6-44.5-58.1-34.1C148,219.4,151.8,274.7,163.6,280.2z M249.5,189.2
						c10.7-10.2,3.9-60.2-8.9-62.5c-12.9-2.2-62.2,31.7-59.7,49.2C183.4,193.4,238.8,199.4,249.5,189.2z"/>
					<path class="st6" d="M55.2,184.5c-0.2,1.2-0.3,2.4-0.5,3.7c14.8,6.4,61.6,2.7,69.1-12.9c7.5-15.6-22.3-47.4-38.3-51
						C69.7,140.7,58.6,161.7,55.2,184.5z M160.5,277.3c23.6-5.7,45.2-19.6,61.1-38.4c-6.6-14.6-42.1-39.4-57-30
						C149.5,218.4,151.3,264.6,160.5,277.3z M62.6,236c9.5,19.3,26.4,33.8,47.9,40.4c13-12.9,30.8-58,19.1-67.9
						C117.8,198.7,73.3,221.5,62.6,236z M155.2,154.6c16.5,0,42.1-42.9,42.7-59.7c-9.9-3.9-20.9-6.1-32.7-6.1
						c-11.9,0-23.5,2.2-34.6,6.1C126.9,111.8,138.7,154.6,155.2,154.6z M245.3,191.7c0.5-2.4,1-4.8,1.3-7.2
						c3.2-21.6-1-41.5-10.6-57.5c-17.2,3.7-57.4,33-55.2,48.9C183.1,191.7,228.7,198.2,245.3,191.7z"/>
					<path class="st7" d="M65.4,184.5c-0.3,2-0.5,4-0.7,6c19.6,2.4,52.9-2.3,59.2-15.3c6.2-13-13.2-37-29.1-46.9
						C79.4,143.4,68.6,163,65.4,184.5z M156.4,268.2c23.3-4.8,44.6-18.5,59.5-37.3c-12.4-13.9-39-29.7-51.4-21.9
						C152.1,216.8,151.2,249.8,156.4,268.2z M70.8,228c8.5,19.3,25.1,33.7,46.5,39.4c11.3-18.2,22-50.6,12.3-58.8
						C119.8,200.4,87.6,214.6,70.8,228z M130,105.4c1.1,19.7,11.5,49.2,25.2,49.2c13.7,0,33.6-29.4,40.4-49.1
						c-9.5-4.2-20.2-6.5-31.9-6.5C152.1,98.9,140.7,101.2,130,105.4z M234.6,193.9c0.8-3.1,1.4-6.2,1.9-9.4
						c3-20.3-1.3-38.9-10.9-53.5c-19.2,9.4-46.6,31.8-44.8,45C182.7,189,214.3,195.7,234.6,193.9z"/>
					<path class="st8" d="M231.1,194.1c0.8-3.2,1.5-6.4,2-9.6c2.9-19.7-1.3-37.7-10.7-51.9c-18.9,10.2-43.3,30.9-41.5,43.3
						C182.6,188.3,210.9,194.9,231.1,194.1z M155.6,265c22.8-4.6,43.6-18,58.1-36.4c-13.1-13.3-37.5-26.9-49.2-19.6
						C152.8,216.3,151.3,246.2,155.6,265z M73.7,225.8c8.2,18.9,24.5,33.1,45.5,38.5c10.6-18.5,19.6-47.9,10.4-55.7
						C120.4,200.8,91.1,213.1,73.7,225.8z M68.7,184.5c-0.3,2.1-0.6,4.3-0.7,6.4c19.8,1.5,49.9-3.3,55.8-15.6
						c5.9-12.2-11.1-34.4-26.4-45.1C82.5,144.6,71.8,163.6,68.7,184.5z M130.3,108.8c2,19.5,12,45.8,24.9,45.8
						c12.9,0,31.4-26.3,39.1-45.7c-9.2-4.2-19.7-6.5-31.1-6.5C151.8,102.3,140.7,104.6,130.3,108.8z"/>
					<path class="st9" d="M154,255.3c20.8-3.9,39.8-16.1,52.7-33c-13.5-10.8-32.4-19.5-42.3-13.3C154.6,215.2,152,237.3,154,255.3z
						 M78.8,184.5c-0.3,2.2-0.5,4.4-0.7,6.6c18.7-0.4,40.8-5.5,45.8-15.9c5-10.3-6.3-27.6-19.1-39.2
						C91.2,148.8,81.5,165.8,78.8,184.5z M131.8,118.4c3.7,17.5,12.5,36.2,23.4,36.2c10.9,0,25.7-18.6,34.7-36.1
						c-8.3-3.9-17.8-6.1-28.2-6.1C151.4,112.3,141.2,114.5,131.8,118.4z M221,193.9c0.9-3.1,1.6-6.2,2-9.4
						c2.6-17.6-1.3-33.8-10-46.3c-16.7,11-33.8,27.3-32.3,37.7C182.4,186.3,202.6,192.7,221,193.9z M82.8,219.9
						c7.2,17.4,22,30.2,41.2,34.9c8.1-17.8,13.3-39.6,5.5-46.2C121.8,202.1,99.9,209.7,82.8,219.9z"/>
					<path class="st10" d="M205.2,191.6c0.6-2.3,1.2-4.7,1.5-7.1c2-13.6-1-26.1-7.7-35.8c-10.9,9.3-19.2,19.7-18.1,27.2
						C181.9,183.3,192.5,188.7,205.2,191.6z M153.5,239.2c15.9-3,30.5-12.5,40.5-25.4c-11-6.1-22.5-9.2-29.5-4.8
						C157.5,213.4,154.1,225.9,153.5,239.2z M98.3,212c5.6,13.3,17,23.2,31.7,26.8c4-13.2,5-25.6-0.5-30.2
						C124.1,203.9,111.4,206.5,98.3,212z M95.2,184.5c-0.3,1.7-0.4,3.4-0.5,5c13.5-2.3,25.6-7,29.2-14.3c3.5-7.3-1.1-18.2-8.8-28.1
						C104.7,157.1,97.3,170.1,95.2,184.5z M155.2,154.6c7.7,0,17.5-9.4,25.7-21.2c-6.4-3-13.7-4.7-21.6-4.7c-7.9,0-15.7,1.7-23,4.7
						C140.7,145.2,147.4,154.6,155.2,154.6z"/>
					<path class="st1" d="M56.2,156.2c6.6-12.7,15.2-24.1,21.7-25.6c13-3,46.7,29.4,43.9,47.7c0.9-1,1.6-2,2.1-3.1
						c8.3-17.3-29-54.3-42.9-51.1C73.4,125.8,62.9,141.1,56.2,156.2z M250.1,188.6c9.9-11.5,3.1-59.6-9.5-61.8
						c-11.7-2-53.8,26-59.2,44.2c11.4-17.7,45.7-39.6,56.1-37.8C248.4,135.1,254.9,171.3,250.1,188.6z M130.5,95.3
						c11.1-10.3,58.4-9.5,63.6,1.7c1.8,3.9-0.2,12.3-4.4,21.8c6.2-12,9.8-23.5,7.5-28.3c-5.5-11.7-57.4-12-65.1,0
						C131.4,91.7,130.9,93.4,130.5,95.3z M60.4,240.3c-0.1,0.4-0.2,0.8-0.2,1.3C72.1,227,115,205.4,126.4,215
						c7.6,6.4,2.7,27.7-5.2,45.4c9.6-18.5,16.9-44.6,8.3-51.8C116.6,197.6,63.6,226.6,60.4,240.3z M156.8,220.1
						c1.3-2,2.8-3.6,4.5-4.6c16.5-10.4,58,20.9,58.1,34.1c0,0.3,0,0.5-0.1,0.8c2-2.7,3.2-5.2,3.2-7.3c-0.1-13.2-41.6-44.5-58.1-34.1
						C161.1,211.1,158.6,215.1,156.8,220.1z"/>
				</g>
			</g>
		</g>
		<g>
			<path class="st1" d="M278,279.4c-22.8-22.5-36.2-54-36.2-89.5l0,0c0-7.1,0.5-14.4,1.7-21.9l0,0C255.7,87,331.7,21.5,413.6,21.4
				l0,0c37.2,0,69.4,13.6,92.2,36.2l0,0c22.8,22.5,36.2,54,36.2,89.5l0,0c0,7.1-0.5,14.4-1.7,21.9l0,0
				c-12.3,81.1-88.2,146.6-170.2,146.7l0,0C333,315.6,300.8,302,278,279.4L278,279.4z M247.3,190c0.1,68.1,51.2,120,122.9,120.1l0,0
				c79,0.1,153-63.7,164.7-142l0,0c1.1-7.2,1.6-14.2,1.6-21l0,0c-0.1-68.1-51.2-122.7-122.9-122.8l0,0c-79-0.1-153,66.4-164.7,144.7
				l0,0C247.9,176.1,247.3,183.1,247.3,190L247.3,190z"/>
		</g>
		<path class="st2" d="M256.9,165.6c-11.2,75.2,40.7,136.1,115.8,136.1s145.2-60.9,156.4-136.1c11.2-75.2-40.7-136.1-115.8-136.1
			C338.1,29.5,268.1,90.4,256.9,165.6z"/>
		<path class="st3" d="M391.3,177.1c48.7,0,90.7,16.4,121.6,37.3c-27.2,51.1-82.1,87.4-140.1,87.4c-58,0-102.1-36.3-114.1-87.4
			C295.7,193.5,342.6,177.1,391.3,177.1z"/>
		<path class="st1" d="M365.1,167.7c-2.3,15.2,8.2,27.6,23.5,27.6c15.2,0,29.4-12.3,31.7-27.6c2.3-15.2-8.2-27.6-23.5-27.6
			C381.6,140.1,367.4,152.4,365.1,167.7z"/>
		<path class="st4" d="M414,171.4c1.9-12.6-6.4-22.8-18.4-22.8s-23.3,10.2-25.2,22.8c-0.2,1.2-0.2,2.4-0.2,3.6
			c-0.4-2.3-0.5-4.8-0.1-7.3c1.9-12.6,13.6-22.8,26.1-22.8c12.6,0,21.2,10.2,19.4,22.8c-0.4,2.6-1.2,5-2.3,7.3
			C413.5,173.8,413.8,172.6,414,171.4z"/>
		<path class="st4" d="M405.6,170.8c1.2-7.9-3.9-14.2-11.2-14.2s-14.3,6.4-15.5,14.2c-0.1,0.8-0.2,1.5-0.2,2.2
			c-0.4-1.7-0.5-3.5-0.3-5.4c1.2-7.9,8.5-14.2,16.4-14.2s13.3,6.4,12.1,14.2c-0.3,1.9-0.9,3.7-1.9,5.4
			C405.3,172.3,405.5,171.6,405.6,170.8z"/>
		<path class="st4" d="M367.7,53.7c-9.8,15.4,6.1,82.1,29.5,82.1c23.4,0,61-67.1,54-82.1C444.1,38.7,377.4,38.3,367.7,53.7z"/>
		<path class="st4" d="M270.9,174.2c9.8,11.9,79.3,7,90.2-15.7c10.9-22.7-35.3-68.4-52.5-63.9C291.3,99.1,261.1,162.3,270.9,174.2z"
			/>
		<path class="st4" d="M340.5,286.6c16.4-7.7,45.3-76.2,28.5-90.4c-16.8-14.2-84.5,22.2-88.5,39.8
			C276.5,253.5,324.1,294.3,340.5,286.6z"/>
		<path class="st4" d="M484.6,237.2c0.3-17-57.7-51.8-75.9-41.8c-22.9,12.5-18.9,85-3.4,91.6C420.7,293.6,484.4,254.2,484.6,237.2z"
			/>
		<path class="st4" d="M499.8,97.5c-16.1-3.1-76,39.3-72.7,62.1c3.3,22.9,72.4,31.7,85.7,18.5C526.1,165,515.8,100.6,499.8,97.5z"/>
		<path class="st5" d="M398.1,129.7c21.9,0,57.2-62.9,50.5-77c-6.6-14.1-69-14.5-78.2,0C361.4,67.2,376.2,129.7,398.1,129.7z
			 M273.2,167.2c9.8,11.2,77.2,8,87.3-12.7c10-20.8-34.8-65.2-51.5-61.4C292.3,96.9,263.4,156,273.2,167.2z M284.2,232.7
			c-3.9,16.5,40.2,54.3,55.5,46.9c15.4-7.4,43.1-71.9,27.6-85C351.8,181.4,288.1,216.2,284.2,232.7z M408.2,280.5
			c14.2,6.6,71-28.6,70.9-44.5c-0.1-15.9-50-53.5-69.8-41C389.5,207.5,394.1,273.9,408.2,280.5z M511.4,171.3
			c12.9-12.3,4.7-72.4-10.7-75c-15.4-2.7-74.7,38.1-71.7,59.1C432,176.3,498.5,183.6,511.4,171.3z"/>
		<path class="st6" d="M278,165.6c-0.2,1.5-0.4,2.9-0.6,4.4c17.8,7.7,74,3.3,83-15.5c9.1-18.8-26.8-57-46.1-61.2
			C295.4,113,282.1,138.2,278,165.6z M404.5,277.2c28.4-6.9,54.4-23.6,73.3-46.1c-8-17.5-50.6-47.3-68.5-36
			C391.3,206.3,393.4,261.9,404.5,277.2z M286.9,227.5c11.4,23.2,31.7,40.7,57.5,48.5c15.6-15.5,37.1-69.6,23-81.5
			C353.2,182.7,299.8,210,286.9,227.5z M398.1,129.7c19.8,0,50.6-51.6,51.3-71.7c-11.9-4.7-25.1-7.3-39.3-7.3
			c-14.3,0-28.3,2.6-41.6,7.3C364.2,78.3,378.3,129.7,398.1,129.7z M506.4,174.2c0.6-2.8,1.2-5.7,1.6-8.6c3.9-25.9-1.1-49.8-12.7-69
			c-20.6,4.5-69,39.7-66.3,58.7C431.7,174.3,486.5,182.1,506.4,174.2z"/>
		<path class="st7" d="M290.2,165.6c-0.4,2.4-0.6,4.8-0.8,7.2c23.6,2.9,63.6-2.8,71.1-18.4c7.5-15.6-15.8-44.4-35-56.3
			C307.1,116.2,294.1,139.8,290.2,165.6z M399.6,266.1c28-5.8,53.5-22.3,71.5-44.8c-15-16.7-46.9-35.7-61.8-26.3
			C394.4,204.4,393.3,244.1,399.6,266.1z M296.7,217.9c10.3,23.2,30.2,40.5,55.9,47.3c13.6-21.8,26.4-60.8,14.7-70.7
			C355.7,184.7,317,201.8,296.7,217.9z M367.9,70.6c1.3,23.7,13.8,59.1,30.2,59.1c16.4,0,40.3-35.4,48.5-59
			c-11.4-5.1-24.3-7.9-38.3-7.9C394.4,62.8,380.7,65.6,367.9,70.6z M493.5,176.9c1-3.7,1.7-7.5,2.3-11.3c3.6-24.3-1.5-46.7-13-64.3
			c-23.1,11.3-56,38.2-53.8,54C431.2,171,469.2,179.1,493.5,176.9z"/>
		<path class="st8" d="M489.3,177.2c1-3.8,1.8-7.6,2.4-11.6c3.5-23.6-1.6-45.3-12.9-62.3c-22.7,12.2-52,37.1-49.9,52
			C431.1,170.2,465.1,178.1,489.3,177.2z M398.6,262.3c27.4-5.5,52.4-21.6,69.8-43.7c-15.8-15.9-45.1-32.4-59.2-23.5
			C395.3,203.9,393.5,239.8,398.6,262.3z M300.2,215.2c9.9,22.7,29.4,39.7,54.6,46.2c12.7-22.3,23.5-57.6,12.5-66.9
			C356.3,185.2,321.2,200,300.2,215.2z M294.3,165.6c-0.4,2.6-0.7,5.1-0.8,7.6c23.8,1.9,59.9-4,67-18.8
			c7.1-14.7-13.3-41.3-31.8-54.2C310.8,117.7,298,140.6,294.3,165.6z M368.2,74.6c2.4,23.5,14.4,55,29.9,55
			c15.5,0,37.7-31.5,47-54.9c-11.1-5-23.7-7.8-37.4-7.8C394.1,66.9,380.7,69.6,368.2,74.6z"/>
		<path class="st9" d="M396.7,250.7c24.9-4.6,47.8-19.4,63.3-39.7c-16.3-13-38.9-23.5-50.8-16C397.5,202.5,394.3,229.1,396.7,250.7z
			 M306.3,165.6c-0.4,2.7-0.7,5.3-0.8,7.9c22.5-0.5,49-6.7,55-19.1c6-12.4-7.6-33.2-23-47.1C321.2,122.7,309.7,143.2,306.3,165.6z
			 M370,86.2c4.4,21.1,15,43.4,28.1,43.4c13,0,30.8-22.3,41.7-43.4c-10-4.7-21.4-7.4-33.9-7.4C393.5,78.9,381.4,81.5,370,86.2z
			 M477.2,177c1-3.7,1.9-7.5,2.5-11.4c3.2-21.2-1.6-40.6-12-55.7c-20.1,13.2-40.5,32.8-38.8,45.3C430.8,167.8,455.1,175.4,477.2,177
			z M311.1,208.1c8.6,20.9,26.4,36.3,49.6,41.9c9.8-21.4,16-47.6,6.7-55.5C358.1,186.7,331.7,195.9,311.1,208.1z"/>
		<path class="st10" d="M458.2,174.2c0.8-2.8,1.4-5.6,1.8-8.5c2.4-16.4-1.2-31.3-9.2-43c-13.1,11.2-23.1,23.7-21.8,32.6
			C430.3,164.2,443,170.6,458.2,174.2z M396.1,231.4c19.2-3.6,36.7-15,48.7-30.6c-13.2-7.3-27-11-35.5-5.8
			C400.9,200.3,396.9,215.3,396.1,231.4z M329.8,198.6c6.7,16,20.4,27.9,38.1,32.2c4.8-15.8,6-30.7-0.6-36.3
			C360.7,189,345.5,192,329.8,198.6z M326,165.6c-0.3,2-0.5,4.1-0.6,6.1c16.2-2.7,30.8-8.4,35.1-17.2c4.2-8.8-1.4-21.9-10.5-33.7
			C337.5,132.6,328.6,148.4,326,165.6z M398.1,129.7c9.3,0,21-11.3,30.9-25.4c-7.7-3.6-16.4-5.6-26-5.6c-9.5,0-18.9,2-27.7,5.6
			C380.8,118.4,388.8,129.7,398.1,129.7z"/>
		<path class="st1" d="M279.2,131.6c7.9-15.3,18.3-29,26-30.8c15.6-3.6,56.1,35.3,52.7,57.3c1-1.2,1.9-2.4,2.5-3.7
			c10-20.8-34.8-65.2-51.5-61.4C299.9,95.1,287.3,113.5,279.2,131.6z M512.1,170.5c11.9-13.8,3.7-71.7-11.4-74.3
			c-14.1-2.4-64.7,31.3-71.1,53.1c13.7-21.2,54.9-47.5,67.4-45.4C510.1,106.3,517.9,149.8,512.1,170.5z M368.4,58.5
			c13.4-12.4,70.2-11.4,76.5,2c2.2,4.7-0.3,14.8-5.3,26.2c7.5-14.4,11.8-28.3,9.1-34c-6.6-14.1-69-14.5-78.2,0
			C369.6,54.2,368.9,56.1,368.4,58.5z M284.2,232.7c-0.1,0.5-0.2,1-0.2,1.5c14.3-17.5,65.8-43.5,79.6-31.9
			c9.2,7.7,3.3,33.3-6.2,54.5c11.5-22.3,20.3-53.6,10-62.3C351.8,181.4,288.1,216.2,284.2,232.7z M400.1,208.4
			c1.6-2.4,3.4-4.3,5.5-5.6c19.8-12.5,69.7,25.1,69.8,41c0,0.3,0,0.6-0.1,1c2.4-3.2,3.8-6.2,3.8-8.7c-0.1-15.9-50-53.5-69.8-41
			C405.3,197.6,402.2,202.3,400.1,208.4z"/>
	</g>
</g>
</svg>
